<?xml version="1.0" encoding="utf-8"?>
<!-- Generator: Adobe Illustrator 23.1.1, SVG Export Plug-In . SVG Version: 6.00 Build 0)  -->
<svg version="1.1" id="Calque_1" xmlns="http://www.w3.org/2000/svg" xmlns:xlink="http://www.w3.org/1999/xlink" x="0px" y="0px"
	 viewBox="0 0 33.2 33.4" style="enable-background:new 0 0 33.2 33.4;" xml:space="preserve">
<style type="text/css">
	.st0{fill-rule:evenodd;clip-rule:evenodd;fill:#22E4AB;}
	.st1{fill-rule:evenodd;clip-rule:evenodd;fill:#FFFFFF;}
</style>
<circle class="st0" cx="16.7" cy="16.8" r="16.1"/>
<g>
	<g id="Group-6" transform="translate(11.000000, 8.000000)">
		<path id="Combined-Shape-Copy" class="st1" d="M9.5,20.6c-0.1,0-0.2,0.1-0.3,0.1c-0.2,0-0.4-0.1-0.6-0.2c-0.1,0-0.1-0.1-0.2-0.1
			c-0.1-0.1-0.2-0.2-0.3-0.4l-3.1-2.8c-0.4-0.4-0.4-1,0-1.3c0.4-0.4,1.1-0.4,1.5,0l1.6,1.5V5.9c0-0.5,0.5-0.9,1.1-0.9
			s1.1,0.4,1.1,0.9v11.5l1.7-1.5c0.4-0.4,1.1-0.4,1.5,0c0.4,0.4,0.4,1,0,1.3l-3.1,2.8c0,0.1-0.1,0.3-0.3,0.4
			C9.9,20.4,9.7,20.5,9.5,20.6z"/>
	</g>
	<path id="Combined-Shape" class="st1" d="M12.8,5.1c0.1,0,0.2-0.1,0.3-0.1c0.2,0,0.4,0.1,0.6,0.2c0.1,0,0.1,0.1,0.2,0.1
		c0.1,0.1,0.2,0.2,0.3,0.4l3.1,2.8c0.4,0.4,0.4,1,0,1.3c-0.4,0.4-1.1,0.4-1.5,0l-1.6-1.5v11.4c0,0.5-0.5,0.9-1.1,0.9
		s-1.1-0.4-1.1-0.9V8.4l-1.7,1.5c-0.4,0.4-1.1,0.4-1.5,0c-0.4-0.4-0.4-1,0-1.3l3.1-2.8c0-0.1,0.1-0.3,0.3-0.4
		C12.5,5.2,12.7,5.2,12.8,5.1z"/>
</g>
</svg>
