<?xml version="1.0" encoding="utf-8"?>
<!-- Generator: Adobe Illustrator 23.1.1, SVG Export Plug-In . SVG Version: 6.00 Build 0)  -->
<svg version="1.1" id="Calque_1" xmlns="http://www.w3.org/2000/svg" xmlns:xlink="http://www.w3.org/1999/xlink" x="0px" y="0px"
	 viewBox="0 0 132 159" style="enable-background:new 0 0 132 159;" xml:space="preserve">
<style type="text/css">
	.st0{fill:#D1BC52;}
	.st1{fill:#1BA879;}
	.st2{fill:#D09264;}
	.st3{fill:#EBD659;}
	.st4{fill:#22E3AA;}
	.st5{fill:#EAE5CE;}
	.st6{fill:#1FCC89;}
	.st7{fill:#F9F4DE;}
	.st8{fill:#FFFFFF;}
	.st9{clip-path:url(#SVGID_2_);fill:#353746;}
	.st10{clip-path:url(#SVGID_4_);fill:#494C5E;}
	.st11{fill:#353746;}
</style>
<path class="st0" d="M15.4,72c-1.1,0.2-1.7,1.2-1.7,2.3c0,1.1,0.4,2,0.9,2.9c0.3,0.5,0.7,0.6,1.1,0.4c0.2,0,0.5,0,0.7-0.1
	c0.3-0.1,0.6-0.2,0.8-0.6C18.4,75.4,18,71.6,15.4,72z"/>
<g>
	<path class="st1" d="M70.9,144.8c1.2-3.5,1.9-7.1,1.8-10.8c-0.1-4.1-0.5-8.7-3-12.2c-1.2-1.7-2.8-3.5-4.7-4.4
		c-0.5-0.3-1-0.4-1.5-0.6c0.2-0.7,0.4-1.3,0.7-1.9c0.1-0.2,0.6-1.1,0.2-0.4c0.3-0.4,0.5-0.9,0.7-1.4c0.8-1.5,0.6-3.5-0.6-4.8
		c-1.3-1.3-3.2-1.4-4.8-0.6c-2.1,1-3.2,3.1-3.9,5.3c-0.6,1.7-1.1,3.4-1.4,5.1c-0.2,1.2-0.2,2.5-0.2,3.7c0.7,5.6,2.6,10.9,4.4,16.2
		c2,6-0.2,11.2,0.1,17.1c0.1,2.9,1.3,3.7,2.7,3.4c1.6,0,3.1-0.1,4.7,0c1.3,0,2.7,0.2,3.8-0.5c0.5-0.3,0.7-0.8,0.6-1.3
		c-0.1-0.4-0.3-0.8-0.6-1.1c-0.8-0.9-2.1-1.2-3.1-2c0,0-0.1-0.1-0.1-0.1c0.6-1,1.1-2,1.6-3C69.4,148.6,70.3,146.7,70.9,144.8z"/>
	<path class="st0" d="M17.4,72.6c1.6-1.3,2.6-3.3,3.1-5.3c0.3-1.3,0.4-2.6,0.5-3.9c0-0.7,0-1.3,0-2c0-0.5,0.1-1.3-0.3-1.7
		c-0.4-0.3-0.9,0.2-1.2,0.5c-1.9,1.7-3.3,3.9-4.1,6.4c-0.5,1.5-0.8,3.1-0.8,4.7c0,0.5,0,1,0.2,1.4c0.4,1.1,1.1,1.1,2,0.5
		C17,72.9,17.2,72.8,17.4,72.6z"/>
	<path class="st1" d="M88.2,76.4c-1.5-0.1-3-0.3-4.4-0.8c-0.1,0.1-0.2,0.2-0.3,0.3c-0.2,0.2-0.4,0.4-0.6,0.6c-0.3,0.3-0.7,0.6-1,1
		c-0.9,1-2,2-2.9,3.1c-1.5,1.4-3,2.8-4.4,4.3c-0.8,0.8-1.6,1.8-1.8,2.8c-0.2,2,1.9,4.3,3.5,5.2c1.1,0.7,3.4,1.5,4.7,1.1
		c1.4-0.4,2-2.4,2.4-3.7c1.1-3.3,2.3-6.6,3.4-10c0.1-0.3,0.2-0.5,0.3-0.7c0.4-0.3,0.7-0.8,1-1.1c0.6-0.7,1.3-1.3,2-1.9
		C89.4,76.5,88.8,76.4,88.2,76.4z"/>
	<path class="st2" d="M107.2,76.2c-12.9-0.6-25.8-0.7-38.7-1c-12.8-0.3-25.5-0.6-38.3-1C23,74,15.8,73.8,8.5,73.7
		c-1.3,0-1.3,1.9-0.1,2c12.8,0.5,25.6,0.7,38.4,1l38.3,1c7.3,0.2,14.6,0.5,21.9,0.5C108.4,78.2,108.4,76.2,107.2,76.2z"/>
	<g>
		<path class="st1" d="M84.8,78c0.4-0.7,0.7-1.5,1.1-2.2c0.1-0.2,0.1-0.3,0.2-0.5c0-0.2,0-0.4-0.2-0.5c-0.1-0.1-0.3-0.1-0.5-0.1
			c-0.2,0-0.3,0.1-0.4,0.2c-0.7,0.5-10.5,9-10.5,9s-3.3,2.4-1.9,4.8C74.1,91.1,81,85.4,84.8,78z"/>
	</g>
	<path class="st3" d="M15.6,70.1c-0.1-3-1.4-5.8-3.2-8.2c-1.1-1.5-2.5-2.8-3.9-4c-0.7-0.6-1.5-1.2-2.2-1.7c-0.6-0.4-1.4-1.3-2.2-1.1
		c-0.8,0.2-0.5,1.2-0.5,1.8C3.8,60.5,5.1,64,7,67.1c1.2,1.9,2.8,3.6,4.6,5c0.5,0.4,1.1,0.8,1.7,1c1.6,0.5,2.2-0.3,2.3-1.8
		C15.7,70.9,15.7,70.5,15.6,70.1z"/>
	<path class="st3" d="M28.3,96.7c-1.7-7.9-6.7-15.8-11.6-20.7c-0.2-0.2-0.5-0.4-0.8-0.4c-2.1,0.1-3.4,2.6-4.5,4.1
		c-1.6,2.2-3.3,4.3-4.7,6.6c-3.1,5.1-6.1,11.3-6.4,17.3c-0.4,9,8.2,16.1,17,14.2C27,115.7,30.1,105.4,28.3,96.7z"/>
	<path class="st4" d="M82.5,95.8c-0.4-3.1-1.2-6.1-2.1-9c-2.4-7.2-6.1-16-11.5-21.4c-0.9-1-5.7-6.6-7-3.6c-0.4,0.9-0.1,1.9,0.1,2.9
		c2.8,12.8-3.8,26.3-14.3,33.7c-7.5,5.3-18.4,10.3-16,21.6c1.3,6,6.3,10.6,12.1,12.6c17.6,6.3,35.2-5.5,38.5-23.3
		C83.1,104.8,83.1,100.3,82.5,95.8z"/>
	<path class="st4" d="M50.8,126.1c0.2-0.8,0.2-1.6,0.2-2.5c-0.1-0.7-0.3-1.4-0.5-2.1c-0.7-2.2-2-4.2-3.9-5.6
		c-0.1-0.2-0.2-0.5-0.3-0.6c-1.5-1.6-3.5-1.9-5.5-2.5c-2.4-0.7-4.8-1.5-7.2-2.2c-2.9-0.9-5.8-1.8-8.7-2.7c-1.4-0.4-2.9-0.9-4.3-1.3
		c-1.1-0.3-2.4-0.7-3.2,0.3c-1,1.3,0.3,3,1.1,4c3.6,4.4,7.2,8.7,11.4,12.4c2.8,2.4,5.8,4.6,9.1,6.3c3.1,1.5,7,3.1,10.4,1.6
		c0.6-0.3,1.3-0.6,1.9-1.1c0.6-0.6,0.9-1.4,1.2-2.1C52.9,127,51.8,126,50.8,126.1z"/>
	<path class="st5" d="M82.5,95.8c-0.4-3.1-1.2-6.1-2.1-9c-1-3.1-2.3-6.6-3.9-9.9c0.1,0.3-1.9,0.8-2.1,0.9c-2.9,1.5-2.3,5.6-2.7,8.3
		c-0.5,3.4-1.2,6.7-2.2,10c-1.6,5.3-3.7,10.4-6.5,15.1c-2.8,4.9-6.5,8.7-11,12.2c-1.3,1-2.6,1.9-3.9,2.8c-0.3,0.3-0.6,0.6-0.9,0.9
		c-0.1,0.1-0.1,0.1-0.2,0.2c0,0-0.1,0.1-0.1,0.1c-0.2,0.3-0.3,0.5-0.5,0.8c-0.1,0.2-0.3,0.8-0.2,0.5c-0.1,0.2-0.1,0.4-0.2,0.6
		c0.2-0.8,0,0,0,0.2c0,0.1,0,0.2,0.1,0.3c0,0.1,0,0.1,0,0.1c0,0.1,0.1,0.2,0.1,0.3c0.1,0.1,0.6,0.9,0.4,0.5c0.7,0.9,1,1.9,0.8,2.8
		c0.9,0.2,1.9,0.3,2.8,0.4c3.1,0.3,6.3,0.1,9.4-0.6c6-1.4,11.5-4.9,15.5-9.6c3.6-4.2,6-9.3,7-14.6C83.1,104.8,83.1,100.3,82.5,95.8z
		"/>
	<path class="st5" d="M50.2,130.8c-0.1-0.8-0.6-1.6-1.7-1.7c-4.6-0.6-11.1-1.5-15.5-3.1c0.7,0.9,3.1,1.9,4,2.6
		c1.8,1.6,3.9,2.8,6,3.7c1.7,0.3,3.3,0.5,5,0.7C49.5,133.2,50.3,132,50.2,130.8z"/>
	<path class="st6" d="M25,107.9c-1.1-0.3-2.2-0.7-3.3-1c1.1,0.5,2.2,0.9,3.3,1.4c2.5,1.1,5.1,2.1,7.6,3.2c0.2-0.3,0.4-0.7,0.6-1
		C30.4,109.6,27.7,108.8,25,107.9z"/>
	<path class="st7" d="M75.3,123.9c3.6-4.2,6-9.3,7-14.6c0.8-4.5,0.8-9,0.2-13.5c-0.4-3.1-1.2-6.1-2.1-9c-0.1-0.4-0.3-0.8-0.4-1.2
		c0.2,1.2,0.4,2.3,0.6,3.5c0.4,3.1,0.5,6.2,0.3,9.3c-0.2,3.1-0.8,6.2-1.6,9.2c-0.4,1.5-0.9,3-1.5,4.5c-0.6,1.4-6.5,10.8-9.7,13.3
		c-1.9,1.5-3.9,2.8-6,3.9c-2.2,1.1-4.5,1.9-6.4,3.5c-0.4,0.3-0.6,0.9-0.5,1.3c1.6-0.1,3.2-0.3,4.7-0.7
		C65.8,132.1,71.3,128.6,75.3,123.9z"/>
	<path class="st4" d="M67.8,94c-0.3-1.1-0.6-2.3-1.5-3c-1.6-1.3-4.6-0.6-6.2,0.2c-1.1,0.6-3.1,2.1-3.4,3.4c-0.4,1.4,1,3,1.8,4
		c2.2,2.7,4.4,5.5,6.6,8.2c0.2,0.2,0.3,0.4,0.5,0.6c0.1,0.5,0.3,1,0.4,1.4c0.3,1,0.4,2.1,0.7,3.1c0.1,0.7,1.2,0.9,1.3,0.1
		c0.1-0.6,0.1-1.2,0.2-1.7c0-0.1,0-0.2,0.1-0.3c0.1,0.3,0.2,0.5,0.3,0.8c0.3,0.7,0.6,1.5,1.1,2.1c0.4,0.4,1.1,0,1.1-0.5
		c0-0.3-0.1-0.7-0.2-1.1c-0.1-0.4-0.1-0.8-0.2-1.1c0-0.1-0.2-0.8,0-0.9c0.3,0.2,1.7,2.5,2.3,1.7c0.2-0.3-0.1-0.8-0.2-1.1
		c-0.1-0.2-1.3-2.2-1.5-2.6C70.9,107,68.3,96,67.8,94z"/>
	<g>
		<path class="st4" d="M70.4,107.1c0.8-0.1,1.6-0.2,2.4-0.3c0.2,0,0.3,0,0.5-0.1c0.2-0.1,0.3-0.2,0.3-0.4c0-0.2-0.1-0.3-0.2-0.4
			c-0.1-0.1-0.3-0.2-0.4-0.2c-0.3-0.1-2-0.7-4.1-1.3"/>
	</g>
	<path class="st4" d="M56.1,144.8c1.2-3.5,1.7-7.1,1.7-10.8c0-2.8-0.3-5.6-0.9-8.4c-0.7-3.2-1.7-6.3-3-9.3
		c-1.7-3.9-5-12.8-10.9-10.2c-1.8,0.8-2.9,2.5-3.5,4.3c-1.1,3.6-0.6,7.7-0.2,11.3c0.7,5.6,2.6,10.9,4.4,16.2c2,6-0.2,11.2,0.1,17.1
		c0.1,1.5,0.4,2.4,0.9,2.9c0.2,0.6,0.8,1.1,1.7,1.1c1.7,0,3.3-0.1,5,0c1.3,0,2.7,0.2,3.8-0.5c0.5-0.3,0.7-0.8,0.6-1.3
		c-0.1-0.4-0.3-0.8-0.6-1.1c-0.8-0.9-2.1-1.2-3.1-2c-0.2-0.1-0.3-0.2-0.5-0.4c0.6-1.1,1.2-2.2,1.8-3.3
		C54.6,148.6,55.5,146.7,56.1,144.8z"/>
	<path class="st4" d="M131.7,41c-0.1-5.9-3.2-11.5-8.6-14.9c-7-4.4-15.8-5.5-24-6.1c-0.1,0-2.2-4.2-2.5-4.6c-1-1.4-2.2-2.7-3.4-4
		c-2.5-2.7-5.4-4.9-8.6-6.7C67.9-4.8,45.7,0.5,35.4,16.8c-7.2,11.4-7.4,26.8-0.5,38.3c3.9,6.5,9.8,11.6,16.7,14.6
		c7.9,3.5,15.2,3.5,23.5,1.9c10.7-2,21.1-5.4,31.5-8.8c8.2-2.7,18.6-4.9,23-13.2C131,46.9,131.7,43.9,131.7,41z"/>
	<path class="st6" d="M85.2,34c0.1-1.3,0-2.7-0.3-4c-0.3-1.4-0.8-2.7-1.5-3.9c-0.6-1.1-1.4-2.3-2.5-3c-0.4-0.3-1.1,0.2-1,0.7
		c0.2,1.2,0.8,2.3,1.3,3.4c0.5,1.2,1,2.4,1.2,3.7c0.2,1.2,0.3,2.4,0.2,3.6c0,0,0,0,0,0c-0.1,0.2-0.1,0.4-0.1,0.6
		c0,0.1,0,0.2,0.1,0.3c0,0,0,0,0,0c-0.6,1.1-0.9,2.4-1.3,3.4c-0.6,1.4-1.4,2.7-2.3,3.9c-1.9,2.4-4.1,4.3-6.8,5.8
		C69.2,50,66,51,62.7,51.9c-1.6,0.5-3.1,0.6-4.8,0.7c-0.8,0-1.7,0.2-2.5,0c-0.9-0.1-1.4-0.7-2.2-1.1c-0.8-0.3-1.3,0.7-0.6,1.2
		c0.7,0.4,1.5,0.3,2.3,0.5c0.8,0.2,1.5,0.5,2.3,0.6c0.8,0.1,1.7,0.1,2.5,0c0.9-0.1,1.8-0.1,2.7-0.3c3.8-0.5,7.3-1.4,10.8-3.2
		c3-1.5,5.9-3.6,8-6.3c1.1-1.4,2-2.8,2.6-4.4c0.5-1.1,1-2.4,1.1-3.7C85,36,85.4,34.2,85.2,34z"/>
	<path class="st8" d="M82.1,22c-1-1.4-2-2.6-3.3-3.7c-0.9-0.8-1.9-1.5-2.9-2.2c-0.2-0.2-0.4-0.3-0.6-0.5c-0.1-0.1-0.2-0.2-0.3-0.2
		c0.1,0,0.1,0.1,0.2,0.1c-1.2-0.8-2.4-1.4-3.8-1.7c-1.3-0.3-2.7-0.4-4.1-0.5c-1.1-0.2-2.2-0.3-3.4-0.3c-1.2,0-2.3,0.1-3.5,0.3
		c-2.2,0.2-4.5,0.5-6.6,1.3c-1.4,0.5-2.9,1.1-4.2,1.9c-0.8,0.5-1.5,1.1-2.2,1.6c-0.3,0.2-0.6,0.4-0.9,0.5c-2,1-3.7,3.3-4.3,5.5
		c-1.9,2.2-3.1,4.7-3.6,7.6c-0.5,2.7-0.7,4.6-0.1,7.3c0.3,1.6,1,3.1,1.8,4.5c1.6,2.7,3.6,5.2,6.4,6.7c2,1.1,4.2,1.8,6.5,2.2
		c3,0.5,4.7,0.5,7.7,0c0.8-0.1,1.7-0.3,2.5-0.6c1.7-0.5,3.5-0.8,5.2-1.4c1.5-0.5,3-1.2,4.4-1.9c1-0.5,1.9-1.2,2.7-1.9
		c2.5-1.7,4.5-3.5,6.1-6.1c1.8-2.8,2.8-6.1,2.8-9.4C84.8,28,83.9,24.6,82.1,22z"/>
	<g>
		<g>
			<defs>
				<path id="SVGID_1_" d="M82.1,22c-1-1.4-2-2.6-3.3-3.7c-0.9-0.8-1.9-1.5-2.9-2.2c-0.2-0.2-0.4-0.3-0.6-0.5
					c-0.1-0.1-0.2-0.2-0.3-0.2c0.1,0,0.1,0.1,0.2,0.1c-1.2-0.8-2.4-1.4-3.8-1.7c-1.3-0.3-2.7-0.4-4.1-0.5c-1.1-0.2-2.2-0.3-3.4-0.3
					c-1.2,0-2.3,0.1-3.5,0.3c-2.2,0.2-4.5,0.5-6.6,1.3c-1.4,0.5-2.9,1.1-4.2,1.9c-0.8,0.5-1.5,1.1-2.2,1.6c-0.3,0.2-0.6,0.4-0.9,0.5
					c-2,1-3.7,3.3-4.3,5.5c-1.9,2.2-3.1,4.7-3.6,7.6c-0.5,2.7-0.7,4.6-0.1,7.3c0.3,1.6,1,3.1,1.8,4.5c1.6,2.7,3.6,5.2,6.4,6.7
					c2,1.1,4.2,1.8,6.5,2.2c3,0.5,4.7,0.5,7.7,0c0.8-0.1,1.7-0.3,2.5-0.6c1.7-0.5,3.5-0.8,5.2-1.4c1.5-0.5,3-1.2,4.4-1.9
					c1-0.5,1.9-1.2,2.7-1.9c2.5-1.7,4.5-3.5,6.1-6.1c1.8-2.8,2.8-6.1,2.8-9.4C84.8,28,83.9,24.6,82.1,22z"/>
			</defs>
			<clipPath id="SVGID_2_">
				<use xlink:href="#SVGID_1_"  style="overflow:visible;"/>
			</clipPath>
			<path class="st9" d="M60,39c1.9,3.2,5,5.2,8.7,5.3c0.1,0,0.2,0,0.3,0.1c0.6,0.2,1.2,0.3,1.8,0.4c1.8,0.3,3.4,0.2,5.3-0.1
				c2.6-0.5,5.1-1.8,7.1-3.6c5.3-5,5.8-13.7,0.6-19c-2.6-2.6-6.1-4.1-9.8-4.3c-2.8-0.1-6,0.7-8.4,2C59.1,23.3,56.3,32.5,60,39z"/>
		</g>
		<g>
			<defs>
				<path id="SVGID_3_" d="M82.1,22c-1-1.4-2-2.6-3.3-3.7c-0.9-0.8-1.9-1.5-2.9-2.2c-0.2-0.2-0.4-0.3-0.6-0.5
					c-0.1-0.1-0.2-0.2-0.3-0.2c0.1,0,0.1,0.1,0.2,0.1c-1.2-0.8-2.4-1.4-3.8-1.7c-1.3-0.3-2.7-0.4-4.1-0.5c-1.1-0.2-2.2-0.3-3.4-0.3
					c-1.2,0-2.3,0.1-3.5,0.3c-2.2,0.2-4.5,0.5-6.6,1.3c-1.4,0.5-2.9,1.1-4.2,1.9c-0.8,0.5-1.5,1.1-2.2,1.6c-0.3,0.2-0.6,0.4-0.9,0.5
					c-2,1-3.7,3.3-4.3,5.5c-1.9,2.2-3.1,4.7-3.6,7.6c-0.5,2.7-0.7,4.6-0.1,7.3c0.3,1.6,1,3.1,1.8,4.5c1.6,2.7,3.6,5.2,6.4,6.7
					c2,1.1,4.2,1.8,6.5,2.2c3,0.5,4.7,0.5,7.7,0c0.8-0.1,1.7-0.3,2.5-0.6c1.7-0.5,3.5-0.8,5.2-1.4c1.5-0.5,3-1.2,4.4-1.9
					c1-0.5,1.9-1.2,2.7-1.9c2.5-1.7,4.5-3.5,6.1-6.1c1.8-2.8,2.8-6.1,2.8-9.4C84.8,28,83.9,24.6,82.1,22z"/>
			</defs>
			<clipPath id="SVGID_4_">
				<use xlink:href="#SVGID_3_"  style="overflow:visible;"/>
			</clipPath>
			<path class="st10" d="M83.8,22c-1.5-1.5-3.2-2.6-5.1-3.3c-0.9,0.3-1.7,0.7-2.5,1.1c-6.5,3.5-9.3,12.7-5.5,19.2
				c1.6,2.8,4.2,4.7,7.3,5.2c1.9-0.7,3.7-1.7,5.2-3.1C88.4,36,88.9,27.3,83.8,22z"/>
		</g>
	</g>
	<path class="st8" d="M64.9,39c-0.8,0-1.5-0.4-2-1.1c-0.9-1.2-0.8-3.3-1-4.7c-0.2-2-0.7-5.5,1.2-6.9c0.3-0.2,0.7-0.4,1.1-0.4
		c2,0,2,2,2.2,3.5c0,2.1,0.7,4.3,0.7,6.4c0.3,1.2-0.1,2.3-1.1,2.8C65.7,38.9,65.3,39,64.9,39z"/>
	<path class="st5" d="M69.5,50c-1.7,0.6-3.5,0.9-5.2,1.4c-0.8,0.2-1.6,0.4-2.5,0.6c-3,0.5-4.7,0.5-7.7,0c-2.3-0.4-4.5-1.1-6.5-2.2
		c-2.8-1.6-4.8-4-6.4-6.7c-0.8-1.4-1.4-2.9-1.8-4.5c-0.6-2.7-0.4-4.6,0.1-7.3c0.5-2.9,1.7-5.4,3.6-7.6c0.5-1.7,1.8-3.6,3.3-4.8
		c-1.9,1.1-3.5,3.3-4.1,5.3c-1.9,2.2-3.1,4.7-3.6,7.6c-0.5,2.7-0.7,4.6-0.1,7.3c0.3,1.6,1,3.1,1.8,4.5c1.6,2.7,3.6,5.2,6.4,6.7
		c2,1.1,4.2,1.8,6.5,2.2c3,0.5,4.7,0.5,7.7,0c0.8-0.1,1.7-0.3,2.5-0.6c1.7-0.5,3.5-0.8,5.2-1.4c1.5-0.5,3-1.2,4.4-1.9
		c0.5-0.3,1-0.6,1.4-0.9c-0.2,0.1-0.4,0.3-0.6,0.4C72.4,48.8,71,49.4,69.5,50z"/>
	<circle class="st1" cx="54" cy="137.8" r="0.8"/>
	<circle class="st1" cx="53.7" cy="141.7" r="0.4"/>
	<circle class="st1" cx="56" cy="140.1" r="0.6"/>
	<path class="st6" d="M66.7,70.8c-1-0.2-1.8-0.5-2.8-0.7c-1-0.3-2.1-0.5-3.1-0.8c-0.3-0.1-16.1-0.7-27.2-22.2
		c-1.7-3.3-2.9-6.7-3.8-10.2c0.1,6.4,1.7,12.8,5,18.3c3.9,6.5,9.8,11.6,16.7,14.6c3.7,1.7,7.4,2.5,11,2.8c-0.2,3.6-1.1,7.1-2.5,10.4
		c1.4-1.9,4.2-8.2,5.7-9.6c0.5-0.5,1-0.9,1.5-1.3C67.6,71.7,67.3,70.9,66.7,70.8z"/>
	<path class="st6" d="M94.2,18c-0.9,0.3-1.9,0.8-2.7,1.4c-0.3,0.2-1.8,1.7-0.8,1.6c1,0,1.9-0.4,2.9-0.5c1-0.2,2.1-0.3,3.1-0.3
		c0.9-0.1,1.7-0.1,2.6-0.2c-0.1,0-0.2,0-0.4,0c0,0-0.8-1.3-1.4-2.6C96.5,17.4,95.3,17.7,94.2,18z"/>
	<path class="st6" d="M120.6,27.4c-0.5,0.5-0.9,1-1.1,1.7c-0.3,0.6-0.5,1.3-0.5,2c0.1,0.5,0.1,0.9,0.2,1.4c0.2,0.9,0.7,1.7,1.3,2.3
		c0.4,0.3,0.7,0.5,1.1,0.8c0.8,0.5,1.7,0.7,2.6,0.7c0.7,0,1.4-0.1,2-0.5c0.6-0.2,1.2-0.6,1.7-1.1c0.5-0.5,0.9-1,1.1-1.7
		c0.1-0.2,0.2-0.4,0.2-0.5c-1.5-2.5-3.6-4.8-6.3-6.5c0,0-0.1,0-0.1-0.1c-0.2,0.1-0.4,0.2-0.7,0.3C121.6,26.5,121.1,26.9,120.6,27.4z
		"/>
</g>
<path class="st1" d="M89.9,74.4c-0.3,0-0.6,0.1-0.8,0.3c0-0.5-0.3-0.9-0.8-1c-0.5-0.1-1.1,0.3-1.1,0.8c0,0,0,0,0,0
	c-0.2-0.1-0.4-0.2-0.7-0.2c-1.3,0.1-1,2.1,0.2,2c0.2,0,0.3-0.1,0.4-0.2c0.3,0.3,0.9,0.3,1.2,0c0,0,0,0,0.1-0.1
	c0,0.2,0.1,0.4,0.2,0.6c0.2,0.2,0.4,0.4,0.6,0.4c0.2,0,0.6,0,0.7-0.2c0.2-0.2,0.4-0.4,0.6-0.7c0.1-0.2,0.2-0.4,0.2-0.7
	C90.9,75,90.4,74.4,89.9,74.4z"/>
<path class="st6" d="M44.8,137.9c-0.8-2.2-2.2-5.3-3.8-8.6c0.8,2.9,1.8,5.7,2.8,8.6c2,6-0.2,11.2,0.1,17.1c0.1,1.3,0.3,2.2,0.7,2.7
	c-0.2-0.5-0.3-1.1-0.3-1.9C44,149.9,46.8,143.8,44.8,137.9z"/>
<path class="st4" d="M129.1,29.9c-0.1-0.5-0.1-1-0.2-1.5c-0.3-1-0.8-1.8-1.5-2.6c-0.4-0.3-0.8-0.6-1.2-0.9c-0.9-0.5-1.9-0.8-2.9-0.8
	c-0.8,0-1.6,0.1-2.2,0.5c-0.7,0.2-1.3,0.6-1.9,1.2c-0.6,0.5-1,1.2-1.2,1.9c-0.4,0.7-0.5,1.4-0.5,2.2c0.1,0.5,0.1,1,0.2,1.5
	c0.3,1,0.8,1.8,1.5,2.6c0.4,0.3,0.8,0.6,1.2,0.9c0.9,0.5,1.9,0.8,2.9,0.8c0.8,0,1.6-0.1,2.2-0.5c0.7-0.2,1.3-0.6,1.9-1.2
	c0.6-0.5,1-1.2,1.2-1.9C129,31.4,129.1,30.7,129.1,29.9z"/>
<path class="st11" d="M123.3,26.8c-1.6,0-3.1,1.4-3,3c0.1,1.6,1.3,3,3,3c1.6,0,3.1-1.4,3-3C126.3,28.2,125,26.8,123.3,26.8z"/>
<path class="st0" d="M15.6,71.3c0-0.4,0-0.8,0-1.2c-0.1-3-1.4-5.8-3.2-8.2c-0.9-1.2-1.9-2.2-3-3.2c-0.1,2.2,0.2,4.4,0.8,6.5
	c0.6,2.2,1.6,4.3,2.9,6.1c0.4,0.6,0.8,1.1,1.4,1.5c0.2,0.1,0.3,0.2,0.4,0.3C15.4,72.8,15.6,72.1,15.6,71.3z"/>
<path class="st3" d="M17.9,70.9c1.2-2.7,1.2-5.9,0.5-8.8c-0.4-1.8-1.1-3.6-1.9-5.3c-0.4-0.8-0.8-1.7-1.3-2.5
	c-0.3-0.6-0.7-1.8-1.5-1.9c-0.8-0.1-1,0.8-1.2,1.4c-1.3,3.4-1.7,7.2-1.2,10.8c0.3,2.2,1,4.4,2,6.5c0.3,0.6,0.6,1.2,1.1,1.7
	c1.3,1.2,2.1,0.6,2.9-0.7C17.6,71.6,17.7,71.2,17.9,70.9z"/>
<path class="st3" d="M15,72c-1.1,0.2-1.7,1.2-1.7,2.3c0,1.1,0.4,2,0.9,2.9c0.3,0.5,0.7,0.6,1.1,0.4c0.2,0,0.5,0,0.7-0.1
	c0.3-0.1,0.6-0.2,0.8-0.6C18,75.4,17.6,71.6,15,72z"/>
<path class="st0" d="M2.3,103.9C2.2,97.4,5,90.4,7.9,84.6c0.1-0.3,0.3-0.5,0.4-0.8c-0.6,0.8-1.1,1.6-1.6,2.4
	c-3.1,5.1-6.1,11.3-6.4,17.3c-0.4,7.7,6,14.1,13.3,14.5C7.5,116.4,2.5,110.8,2.3,103.9z"/>
</svg>
