<svg id="Calque_1" data-name="Calque 1" xmlns="http://www.w3.org/2000/svg" viewBox="0 0 567.6 574.55"><defs><style>.cls-1{fill:#fff;}</style></defs><title>icon-facebook</title><path class="cls-1" d="M282.37,563.36A277.52,277.52,0,0,1,86.13,89.6,277.53,277.53,0,0,1,478.61,482.08,275.7,275.7,0,0,1,282.37,563.36Zm0-540.46A262.94,262.94,0,0,0,96.44,471.77,262.94,262.94,0,1,0,468.29,99.91,261.21,261.21,0,0,0,282.37,22.9Z"/><path class="cls-1" d="M284.42,205.78A83.56,83.56,0,1,0,368,289.34,83.42,83.42,0,0,0,284.42,205.78Zm0,137.89a54.33,54.33,0,1,1,54.32-54.33,54.43,54.43,0,0,1-54.32,54.33ZM390.89,202.36a19.49,19.49,0,1,1-19.49-19.49A19.45,19.45,0,0,1,390.89,202.36Zm55.35,19.78C445,196,439,172.9,419.91,153.85s-42.18-25-68.29-26.33c-26.91-1.52-107.57-1.52-134.47,0-26,1.24-49.17,7.2-68.29,26.26s-25,42.18-26.33,68.29C121,249,121,329.63,122.53,356.54c1.23,26.11,7.2,49.24,26.33,68.29s42.18,25,68.29,26.33c26.9,1.52,107.56,1.52,134.47,0,26.11-1.24,49.23-7.2,68.29-26.33s25-42.18,26.33-68.29c1.52-26.91,1.52-107.49,0-134.4ZM411.47,385.41a55,55,0,0,1-31,31c-21.45,8.51-72.36,6.55-96.07,6.55s-74.69,1.89-96.07-6.55a55,55,0,0,1-31-31c-8.5-21.45-6.54-72.36-6.54-96.07s-1.89-74.69,6.54-96.07a55,55,0,0,1,31-31c21.45-8.51,72.36-6.55,96.07-6.55s74.69-1.89,96.07,6.55a55,55,0,0,1,31,31C420,214.72,418,265.63,418,289.34S420,364,411.47,385.41Z"/></svg>