<svg id="Calque_1" data-name="Calque 1" xmlns="http://www.w3.org/2000/svg" viewBox="0 0 567.6 574.55"><defs><style>.cls-1{fill:#fff;}</style></defs><title>icon-facebook</title><path class="cls-1" d="M282.37,563.36A277.52,277.52,0,0,1,86.13,89.6,277.52,277.52,0,1,1,478.6,482.08,275.66,275.66,0,0,1,282.37,563.36Zm0-540.46A262.94,262.94,0,0,0,96.44,471.77,262.94,262.94,0,0,0,468.3,99.91,261.25,261.25,0,0,0,282.37,22.9Z"/><path class="cls-1" d="M425.88,221.32c.22,3,.22,6,.22,9.07,0,92.19-70.17,198.42-198.43,198.42A197,197,0,0,1,120.58,397.5a143.62,143.62,0,0,0,16.84.87A139.63,139.63,0,0,0,224,368.57a69.86,69.86,0,0,1-65.2-48.36A88.86,88.86,0,0,0,172,321.29a73.79,73.79,0,0,0,18.35-2.38,69.76,69.76,0,0,1-55.92-68.44v-.87a70.22,70.22,0,0,0,31.52,8.85,69.84,69.84,0,0,1-21.59-93.27,198.23,198.23,0,0,0,143.8,73,78.68,78.68,0,0,1-1.73-16,69.81,69.81,0,0,1,120.7-47.72,137.23,137.23,0,0,0,44.26-16.84,69.53,69.53,0,0,1-30.66,38.44,140,140,0,0,0,40.16-10.8,149.92,149.92,0,0,1-35,36.06Z"/></svg>