<svg id="Calque_1" data-name="Calque 1" xmlns="http://www.w3.org/2000/svg" viewBox="0 0 567.6 574.55"><defs><style>.cls-1{fill:#fff;}</style></defs><title>icon-facebook</title><path class="cls-1" d="M282.37,563.36A277.52,277.52,0,0,1,86.13,89.6,277.52,277.52,0,1,1,478.6,482.08,275.66,275.66,0,0,1,282.37,563.36Zm0-540.46A262.94,262.94,0,0,0,96.44,471.77,262.94,262.94,0,0,0,468.3,99.91,261.25,261.25,0,0,0,282.37,22.9Z"/><path class="cls-1" d="M344.74,314.82l9-58.94H297.22V217.63c0-16.13,7.91-31.84,33.24-31.84h25.71V135.6s-23.33-4-45.64-4c-46.58,0-77,28.23-77,79.34v44.92H181.73v58.94H233.5v142.5h63.72V314.82Z"/></svg>